<?xml version="1.0" standalone="no"?>
<!DOCTYPE svg PUBLIC "-//W3C//DTD SVG 20010904//EN"
 "http://www.w3.org/TR/2001/REC-SVG-20010904/DTD/svg10.dtd">
<svg version="1.0" xmlns="http://www.w3.org/2000/svg"
 width="512.000000pt" height="512.000000pt" viewBox="0 0 512.000000 512.000000"
 preserveAspectRatio="xMidYMid meet">

<g transform="translate(0.000000,512.000000) scale(0.100000,-0.100000)"
fill="#000000" stroke="none">
<path d="M2498 4921 l-33 -29 0 -327 0 -327 33 -29 c20 -18 43 -29 62 -29 19
0 42 11 62 29 l33 29 0 327 0 327 -33 29 c-20 18 -43 29 -62 29 -19 0 -42 -11
-62 -29z"/>
<path d="M1046 4535 c-25 -23 -31 -45 -26 -89 3 -31 278 -497 311 -528 50 -47
125 -33 154 29 9 19 14 45 11 57 -8 34 -295 519 -318 539 -31 26 -99 23 -132
-8z"/>
<path d="M3893 4541 c-11 -10 -87 -133 -168 -271 -167 -284 -173 -301 -116
-352 42 -38 90 -38 130 0 35 32 321 517 321 545 0 27 -27 75 -49 87 -32 17
-95 12 -118 -9z"/>
<path d="M2475 3829 c-162 -20 -365 -74 -365 -98 0 -18 14 -19 90 -5 230 40
500 23 727 -47 l66 -21 -104 -52 c-280 -139 -542 -373 -799 -711 -255 -336
-484 -776 -600 -1153 l-31 -103 -40 48 c-237 286 -360 597 -346 873 10 192 72
335 202 466 165 167 376 249 700 271 88 6 110 11 110 23 0 21 -60 28 -227 29
-227 1 -385 -31 -553 -113 -207 -102 -346 -270 -407 -492 -17 -64 -21 -107
-22 -229 0 -133 3 -163 27 -258 65 -249 198 -496 384 -712 37 -43 80 -92 94
-109 l26 -31 -14 -100 c-10 -68 -13 -155 -10 -272 l4 -172 -30 25 c-40 34
-132 135 -188 209 -100 130 -163 250 -229 435 -25 68 -43 106 -54 108 -23 5
-21 -33 9 -155 145 -601 646 -1109 1237 -1259 697 -176 1429 82 1870 659 558
730 514 1760 -103 2421 -251 269 -575 443 -950 512 -104 19 -367 26 -474 13z
m922 -412 c88 -45 244 -170 348 -279 214 -222 362 -511 428 -832 19 -95 22
-141 21 -321 0 -178 -4 -226 -23 -315 -58 -273 -174 -516 -307 -646 -264 -258
-841 -298 -1382 -97 -277 102 -595 291 -789 467 l-51 46 24 93 c54 202 130
399 238 615 321 641 815 1170 1197 1283 95 28 226 22 296 -14z m-1572 -2424
c317 -198 661 -326 1010 -378 200 -30 496 -20 621 21 41 13 -86 -62 -181 -107
-413 -196 -875 -218 -1314 -64 -335 117 -411 220 -411 556 0 80 3 148 6 152 3
3 47 -25 97 -62 51 -37 128 -90 172 -118z"/>
<path d="M35 3476 c-40 -40 -45 -96 -13 -138 7 -9 128 -85 270 -167 282 -166
295 -171 350 -122 43 38 46 98 8 136 -14 13 -137 89 -273 170 -271 158 -296
167 -342 121z"/>
<path d="M4740 3354 c-135 -80 -256 -156 -269 -169 -37 -36 -33 -100 8 -137
53 -48 68 -43 349 123 142 82 263 158 270 167 50 65 4 163 -75 161 -30 0 -88
-30 -283 -145z"/>
</g>
</svg>
